<svg xmlns="http://www.w3.org/2000/svg" viewBox="0 0 88.18 87.15"><defs><style>.cls-1{fill:#573737;}.cls-2{fill:none;stroke:#573737;stroke-linecap:round;stroke-linejoin:round;stroke-width:4px;}</style></defs><title>home</title><g id="레이어_2" data-name="레이어 2"><g id="레이어_1-2" data-name="레이어 1"><path class="cls-1" d="M62.5,3.13C54.62-2,45.06.2,36.53,2.4,27.09,4.83,17.87,8.83,11,15.9c-12.21,12.5-13.72,34.59-7,50.22,7.16,16.72,24.93,22.62,42,20.68,8.9-1,18-3.61,25-9.4A49,49,0,0,0,86.09,53.78C89,44,89,33.23,85,23.78,81.55,15.59,74.19,7.58,64.55,9.22c-2,.34-1.47,3.46.47,3.48C84,12.87,86.3,39.31,82.38,52.76c-4.9,16.82-17.53,27.89-34.61,31.13C32.35,86.82,15.08,83.4,7,68.66c-7.33-13.31-7.49-34.44,1.36-47C14,13.53,22.69,8.37,31.93,5.31s21.41-6.66,30.4-1.9a.16.16,0,0,0,.17-.28Z"/><path class="cls-1" d="M42.77,26.34c-1.28.61-.36,1.82-1.64,2.43A85.71,85.71,0,0,1,59.51,41l3.88-3.22a231.65,231.65,0,0,1-19-13.64c-1-.8-3-1-4,0A195.18,195.18,0,0,0,24.07,44c-2,2.74,3.2,5.26,5.17,2.51C34.09,39.77,39.4,33.35,44.84,27c-1.48.16-2.56-1.79-4-1.63,6.33,4.55,12.27,11.2,18.7,15.66,2.69,1.87,6.28-1,3.88-3.22A67.44,67.44,0,0,0,43.71,25.12c-1.69-.7-3.86.14-3.84,1.83"/><polyline class="cls-2" points="34.39 44.93 35.4 66.7 55.76 63.47 55.76 42.31 55.76 42.31 55.76 63.47 35.4 66.7 34.39 44.93"/></g></g></svg>