<svg xmlns="http://www.w3.org/2000/svg" viewBox="0 0 88.18 87.15"><defs><style>.cls-1{fill:#573737;}</style></defs><title>letter</title><g id="레이어_2" data-name="레이어 2"><g id="레이어_1-2" data-name="레이어 1"><path class="cls-1" d="M62.5,3.13C54.62-2,45.06.2,36.53,2.4,27.09,4.83,17.87,8.83,11,15.9c-12.21,12.5-13.72,34.59-7,50.22,7.16,16.72,24.93,22.62,42,20.68,8.9-1,18-3.61,25-9.4A49,49,0,0,0,86.09,53.78C89,44,89,33.23,85,23.78,81.55,15.59,74.19,7.58,64.55,9.22c-2,.34-1.47,3.46.47,3.48C84,12.87,86.3,39.31,82.38,52.76c-4.9,16.82-17.53,27.89-34.61,31.13C32.35,86.82,15.08,83.4,7,68.66c-7.33-13.31-7.49-34.44,1.36-47C14,13.53,22.69,8.37,31.93,5.31s21.41-6.66,30.4-1.9a.16.16,0,0,0,.17-.28Z"/><path class="cls-1" d="M63.41,41.44c-1.7,5.07-3.55,10.18-6.56,14.64-3.4,5-8.44,7.78-13.43,10.94-2.67,1.69-4.7,1-7.72.44-2.8-.47-5.6-.89-8.4-1.37-1.08-.19-9.87-1.29-9.88-1.29-.47-1.1,1.31-6,1.54-7.13.54-2.65,1.09-5.31,1.61-8,.39-2,.73-3.9,1-5.88.5-3.91,2-6.05,5.22-8.2,9.08-6,19-5.61,29.18-8.23a.61.61,0,0,0-.33-1.18c-11,2.85-21.56,2.53-31.11,9.52-3.32,2.43-3.69,4.7-4.21,8.67-.46,3.49-1.25,7-1.94,10.41-.6,3-.69,7.92-2.59,10.36-.26.33-.14,1,.4,1,6.83-.63,14.39,1.54,21.14,2.67,5,.84,5.37-.13,9.86-2.94,9.34-5.85,13.6-13.89,16.6-24.3.07-.23-.29-.33-.36-.1Z"/><path class="cls-1" d="M21.22,61.27c4.59-2.3,8.95-5.09,13.31-7.78,1.08-.67,4.86-2.11,4.26-4.14-.46-1.57-2.09-1-3.08-.36a48,48,0,0,0-5.55,4.73,55.31,55.31,0,0,0-5.61,5.11c-.32.37.09,1,.55.71A56,56,0,0,0,31,54.59l2.85-2.51,1.9-1.67q1.8.17.46.72c-.48.91-3.07,2-4,2.53l-3.39,2.17c-2.64,1.69-5.29,3.37-7.82,5.23a.12.12,0,0,0,.12.21Z"/><path class="cls-1" d="M56.21,26.32a96.27,96.27,0,0,1,5.64,8c1,1.62,4.2,5.29,1.63,6.36a.42.42,0,0,0-.18.69c2.92,3.58,4.55,4.23,9,3a.46.46,0,0,0,.32-.56c-2.06-6.69-5.75-12.47-9.9-18.06-1-1.34-2.33-3.9-3.94-4.66-2.19-1-3.59,1.06-5.76,1.25-.3,0-.61.31-.49.64a14.78,14.78,0,0,0,2.55,4.5c.31.37,1-.12.68-.52-.63-.92-2.13-2.63-1.44-3.72.51-.81,4-1,4.65-.68,1.46.78,3.24,4.17,4.25,5.57s2.07,2.92,3,4.42c1.59,2.49,5.51,7.71,4.93,10.65-.42,2.16-4.74.37-5.74-1.06-.88-1.27-1.49-.94.15-1.64a.41.41,0,0,0,.14-.55,49,49,0,0,0-9.37-13.72c-.06-.07-.19,0-.13.1Z"/></g></g></svg>